ply
        format ascii 1.0
        element vertex 1055
        property float x
        property float y
        property float z
        end_header
        0.213558 -3.828681 -6.390537
0.101672 -3.056750 -6.843109
0.101672 -3.056750 -6.843109
-0.042509 2.686501 3.400590
0.057736 0.925062 2.223334
0.306943 -14.258237 -21.548704
-0.017639 3.192491 4.973991
-0.017639 3.192491 4.973991
-0.014572 -3.136291 -7.577185
-0.014572 -3.136291 -7.577185
0.018073 -0.377951 -1.212382
0.101739 0.913072 2.174634
0.112672 0.898808 2.166892
0.042896 1.175444 1.728040
0.152962 0.901468 2.125406
-0.298464 -4.113834 -7.374948
-0.298464 -4.113834 -7.374948
0.180732 0.797598 1.962482
0.071207 1.277756 1.662254
0.075038 1.304806 1.646880
0.190578 0.853038 2.088555
0.103322 0.834240 1.885958
0.090566 1.300568 1.642265
0.090566 1.300568 1.642265
-0.090982 -1.130730 -1.601442
-0.090206 -1.147541 -1.553317
0.221426 0.778488 1.838288
0.220161 0.852484 2.057863
0.100729 1.297462 1.639328
0.225308 0.833322 1.890246
0.118741 0.886306 1.835994
0.145107 1.047803 2.238440
0.119266 1.066268 1.742956
0.189232 1.584076 2.654105
0.189232 1.584076 2.654105
0.129124 1.071891 1.736342
0.131966 1.144626 1.698427
0.139043 1.131153 1.702940
0.184333 0.266164 2.031899
0.297745 0.833474 2.035549
0.159565 1.089210 1.717103
0.160205 1.087746 1.719138
0.193760 0.273700 2.028100
0.292882 0.792076 1.984287
0.274215 1.235395 2.702147
0.185164 0.915273 1.796447
0.185164 0.915273 1.796447
-0.187513 -1.149979 -1.790215
0.245468 1.421429 2.280181
0.275340 1.312105 2.549439
0.344408 0.837397 2.089334
0.344408 0.837397 2.089334
0.194952 0.922497 1.788501
0.191641 1.004866 1.749629
0.191641 1.004866 1.749629
0.202782 0.809692 1.850646
0.185539 1.124116 1.690956
-0.198066 -1.190662 -1.811598
0.211413 0.688987 1.910492
0.193810 1.123036 1.690128
0.193810 1.123036 1.690128
0.215255 0.915508 1.791431
0.218565 0.927801 1.779889
0.211519 1.046845 1.719898
0.218731 0.933945 1.778322
0.223273 0.930414 1.778437
0.287344 1.423369 2.275796
0.218550 1.067073 1.703373
0.225299 1.004481 1.740007
0.224849 1.007827 1.735443
0.231820 0.928152 1.776132
0.242089 0.776800 1.849280
0.225210 1.098632 1.695625
0.230167 1.040526 1.723664
0.413780 0.859972 2.167472
0.237346 0.924148 1.777252
0.367229 0.409728 2.708849
0.315583 1.531710 2.286066
0.239153 1.052394 1.713661
-1.988718 -6.317710 -14.202033
0.251909 0.915555 1.779157
0.309222 0.558331 1.535200
0.288291 0.252823 2.005187
0.243454 1.113608 1.680342
0.446341 0.878090 2.208438
0.285430 0.337491 1.967521
0.258150 0.946101 1.773330
0.274911 0.683946 1.879531
0.250795 1.076776 1.695738
0.248473 1.120735 1.676264
-1.177307 -1.647753 -7.991699
0.255502 1.039938 1.714389
0.258358 1.001524 1.733056
0.255465 1.078946 1.692951
0.271429 0.906673 1.777954
0.265835 0.990053 1.735634
0.262081 1.044642 1.708239
0.282715 0.804868 1.840111
0.277030 0.858646 1.798722
0.265718 1.021009 1.719218
0.262269 1.081354 1.691808
0.268477 1.039021 1.713033
0.282518 0.899344 1.778537
0.269240 1.073917 1.693956
0.288827 0.848953 1.801252
0.330553 0.260184 1.996359
0.279356 1.085427 1.687593
0.283789 1.038941 1.705641
0.300253 0.856452 1.794504
0.331480 0.301399 1.972661
0.369558 1.128719 2.189705
0.291764 1.019751 1.710010
0.377747 1.120653 2.193788
0.379464 1.115808 2.196980
0.379464 1.115808 2.196980
0.380474 1.130285 2.187209
0.348632 0.256684 1.994885
0.310431 0.905785 1.765690
0.389847 1.113152 2.198226
0.321682 0.838690 1.801094
0.307515 1.017549 1.709407
0.311088 0.991201 1.726730
0.306686 1.050987 1.697923
0.400013 1.112095 2.198457
0.314853 1.075331 1.684365
0.341047 0.796281 1.812523
0.338830 0.853914 1.789770
0.338830 0.853914 1.789770
0.312851 0.971332 1.622221
0.333642 0.989198 1.718429
0.403136 0.572589 1.420671
0.466861 0.673395 1.572858
0.367329 0.678318 1.865943
-2.996649 -3.620264 -15.060281
0.339724 1.050044 1.693654
0.339724 1.050044 1.693654
0.353865 0.910901 1.760174
0.341514 1.036258 1.698488
0.341839 1.063184 1.683778
0.462204 0.726059 1.708274
0.358765 0.906742 1.759330
0.339078 1.112334 1.661225
0.339078 1.112334 1.661225
-0.480770 -1.014713 -2.348281
0.364031 0.910516 1.759049
0.410527 0.300237 1.957953
0.410527 0.300237 1.957953
0.370375 0.905075 1.760130
0.354023 1.070746 1.679273
0.361992 0.992902 1.716715
0.362608 0.987674 1.719434
0.372163 0.892247 1.763195
0.420677 0.259557 1.982172
0.359190 1.048725 1.689858
0.376103 0.905572 1.758683
0.360922 1.064284 1.680118
0.357743 1.108669 1.656301
0.371897 0.992216 1.713583
0.372333 0.989087 1.714648
0.369950 1.009559 1.703173
0.369720 1.031340 1.696439
-0.545316 -1.661079 -2.485246
0.364560 1.108264 1.658428
0.369194 1.071380 1.675746
0.374075 1.066858 1.677391
0.406692 0.765093 1.823506
0.394407 0.912656 1.751545
0.405780 0.870213 1.777697
0.432035 0.549456 1.473952
0.443151 0.356032 1.934821
0.402793 0.901065 1.755402
0.386647 1.062957 1.677377
0.386647 1.062957 1.677377
0.382311 1.106579 1.656425
0.382766 1.101699 1.657715
0.388505 1.047420 1.682273
8.877340 16.994627 38.238025
0.397999 1.003685 1.705973
0.410780 0.902690 1.755510
0.410780 0.902690 1.755510
0.412168 0.888984 1.761405
0.455617 0.334680 1.944603
0.412457 0.895712 1.757877
0.388713 1.106589 1.655928
0.456194 0.347295 1.937686
0.456194 0.347295 1.937686
0.466603 0.286059 1.967793
0.418167 0.907555 1.749789
0.419117 0.933531 1.747049
0.423224 0.902279 1.753269
0.423224 0.902279 1.753269
0.500407 0.668285 1.513503
0.425317 0.892755 1.758394
0.440870 0.787946 1.819261
0.404903 1.082457 1.659049
0.412713 1.044271 1.682223
1.336183 2.562971 5.246772
0.441161 0.831579 1.791080
0.418920 1.005472 1.698594
0.423482 0.987447 1.709000
0.415927 1.061214 1.673998
0.415770 1.058662 1.670976
0.419843 1.057371 1.675520
0.469107 0.679943 1.860313
0.448562 0.843673 1.777799
0.448562 0.843673 1.777799
0.497919 0.263012 1.971459
-4.391923 -12.609956 -17.445649
0.469465 0.538922 1.473831
0.493195 0.327360 1.944152
0.493195 0.327360 1.944152
0.431879 1.015785 1.692128
0.496142 0.339493 1.938816
0.430971 1.041727 1.676040
0.424583 1.104245 1.651104
0.430739 1.055903 1.674117
0.434838 0.873551 1.688155
0.409627 1.232351 1.590106
0.427901 1.092790 1.656418
0.462251 0.820776 1.788242
0.470546 0.762766 1.818734
0.470546 0.762766 1.818734
0.432688 1.062050 1.672024
0.461334 0.845836 1.777257
0.454375 0.930497 1.740886
0.456470 0.905743 1.747089
0.456470 0.905743 1.747089
0.474883 0.810525 1.793491
0.439733 1.099814 1.652259
0.440225 1.095125 1.653896
0.456089 0.978686 1.709182
0.468448 0.910850 1.744898
0.457761 0.999709 1.693155
0.474727 0.663991 1.261039
0.532035 0.274058 1.966284
0.474287 0.899355 1.752023
0.454809 1.049900 1.673764
0.530928 0.321136 1.944092
0.518719 0.426983 1.898521
0.482114 0.661404 1.262378
0.481765 0.664562 1.260773
0.548296 0.758510 1.453531
0.488532 0.885659 1.755967
0.466087 1.056699 1.671453
0.463062 1.082342 1.658473
0.556313 0.255569 1.973926
0.449362 1.220548 1.593481
0.480728 1.039723 1.702957
0.482262 0.984785 1.706847
0.479075 1.015255 1.689264
0.557597 0.762058 1.450175
0.551303 0.335701 1.940698
0.551303 0.335701 1.940698
0.495208 0.906886 1.744684
0.551494 0.328581 1.942120
0.551494 0.328581 1.942120
0.576623 0.647782 1.497947
0.507841 0.811385 1.785960
0.481637 1.019187 1.690847
0.385924 0.884224 1.351302
0.485527 0.989842 1.703176
0.496441 0.926382 1.738596
0.455662 1.222485 1.591136
0.533079 0.676495 1.856322
-0.731238 -1.532470 -2.533706
0.391107 0.840805 1.343185
0.522354 0.762766 1.813185
0.460736 1.218055 1.593877
0.492589 0.980313 1.702534
0.477251 1.098684 1.649447
0.477251 1.098684 1.649447
0.490030 1.002245 1.692683
0.483878 1.053169 1.667655
0.499010 1.110583 1.706859
0.568489 0.760884 1.449538
0.511013 0.888531 1.753538
0.510094 0.891665 1.749587
0.510094 0.891665 1.749587
0.522500 0.808822 1.787382
-0.647687 -1.361603 -2.214995
0.465184 1.224158 1.590709
0.512490 0.896260 1.749722
0.484830 1.077769 1.655223
0.523709 0.824132 1.783151
0.558056 0.426484 1.898156
0.575937 0.297590 1.956184
0.569470 0.344764 1.933763
0.485422 1.102525 1.647626
0.574512 0.322648 1.947072
0.487529 1.095574 1.651568
0.515785 0.893925 1.745965
0.631412 0.841850 2.127558
0.529066 0.815443 1.789802
0.504550 0.980553 1.706598
0.631927 0.840171 2.124779
0.519376 0.885994 1.753732
0.489722 1.099201 1.649135
-4.709406 -4.710789 -15.742877
-5.132382 -5.179689 -17.128260
0.569402 0.425782 1.899297
0.506358 1.027087 1.683636
0.671050 0.725807 1.830126
0.561564 0.648825 1.860907
0.509791 1.015662 1.689207
0.594519 0.276756 1.966349
0.536868 0.844798 1.771883
0.518264 0.659074 1.263888
0.545829 0.811781 1.790448
0.580819 0.424447 1.897320
0.580819 0.424447 1.897320
0.637686 0.888044 2.073100
0.522236 1.018789 1.687890
0.523697 1.015370 1.689747
0.516428 1.062305 1.664619
0.613420 0.264450 1.972482
0.514651 1.088788 1.652430
0.525496 1.018407 1.686953
0.525496 1.018407 1.686953
0.556045 0.821463 1.783355
0.604110 0.353875 1.933862
0.605750 0.344687 1.935402
0.523854 1.052206 1.671851
0.598910 0.432809 1.908265
0.529018 1.028316 1.681562
0.552805 0.539713 1.445596
0.528643 1.050769 1.672312
0.601091 0.423275 1.901081
0.612942 0.325668 1.937599
0.615206 0.349416 1.934585
0.615206 0.349416 1.934585
0.615994 0.341811 1.934819
0.540131 1.019787 1.687270
0.540131 1.019787 1.687270
0.569784 0.826257 1.779778
0.533117 1.090729 1.652971
0.575505 0.836776 1.776281
0.535733 1.094478 1.652181
0.541048 1.100940 1.647656
0.548401 1.057791 1.668959
0.612159 0.413500 1.850641
0.603114 0.791462 1.806262
1.596457 3.267573 4.551048
0.445573 0.695425 1.137305
0.605877 0.832966 1.778830
0.605877 0.832966 1.778830
0.605876 0.833102 1.778782
0.605876 0.833102 1.778782
0.659628 0.410043 1.933054
0.624853 0.814421 1.790256
0.683550 0.333970 1.946811
0.683550 0.333970 1.946811
0.639585 0.764435 1.815519
0.594981 1.024766 1.687821
0.594981 1.024766 1.687821
0.689023 0.340401 1.951435
0.635861 0.836534 1.780984
0.635861 0.836534 1.780984
0.704948 0.349957 1.944062
1.041006 1.082299 2.805304
0.708812 0.338381 1.949412
0.651762 0.834695 1.784711
0.657672 0.824480 1.789217
1.132138 2.506176 2.983532
0.715090 0.376353 1.933559
0.669121 0.816837 1.789162
0.725903 0.372973 1.937137
0.602200 1.198171 1.606895
0.683656 0.781789 1.818556
0.684117 0.780278 1.816231
0.730325 0.382594 1.934586
0.736195 0.349153 1.948361
0.603234 1.227181 1.593486
0.606981 1.222422 1.594971
-1.453278 -1.524377 -3.687697
0.610996 1.211575 1.604143
0.611532 1.207667 1.604244
0.613132 1.198978 1.608115
0.612987 1.203417 1.606416
0.612987 1.203417 1.606416
0.612987 1.203417 1.606416
0.727598 0.452030 1.902473
0.731151 0.433596 1.910405
0.628802 0.657093 1.281355
0.615994 1.216049 1.600728
0.615994 1.216049 1.600728
0.614651 1.224027 1.596947
0.615884 1.220280 1.599382
0.718480 0.690961 1.856490
0.745074 0.408449 1.924436
0.745074 0.408449 1.924436
0.622197 1.202471 1.606244
0.622197 1.202471 1.606244
0.738379 0.450305 1.904877
0.741296 0.435771 1.912236
0.619413 1.228537 1.595906
0.709062 0.774524 1.826545
0.624643 1.199661 1.608992
0.745839 0.424016 1.917162
0.751573 0.412090 1.925526
0.745442 0.445652 1.908357
0.747412 0.436484 1.913100
0.627265 1.217149 1.601830
0.630479 1.204146 1.607888
0.630479 1.204146 1.607888
0.627828 1.221472 1.601143
0.625651 1.233718 1.594882
0.625651 1.233718 1.594882
0.626779 1.229563 1.597114
0.626779 1.229563 1.597114
0.749572 0.453242 1.906396
0.749572 0.453242 1.906396
0.754076 0.435594 1.914250
0.754076 0.435594 1.914250
0.754076 0.435594 1.914250
0.767647 0.363575 1.946816
0.635211 1.205896 1.609418
0.635822 1.200920 1.610421
0.756604 0.447026 1.910611
0.606782 0.534961 1.317347
0.640926 1.202184 1.611113
0.640109 1.210258 1.607848
0.639602 1.214043 1.605048
0.639602 1.214043 1.605048
0.765529 0.433271 1.919193
0.780231 0.355425 1.955244
0.770688 0.412449 1.927853
0.742540 0.715224 1.855194
0.735263 0.756469 1.834570
0.769872 0.448092 1.913319
0.780931 0.395418 1.940646
0.775567 0.419371 1.926597
0.789540 0.348865 1.960201
0.773404 0.433996 1.918859
0.676232 1.019194 1.625497
0.676232 1.019194 1.625497
0.776780 0.457355 1.909096
0.751328 0.737178 1.845851
0.783190 0.453273 1.912511
0.799989 0.413210 1.933875
1.388750 1.481755 3.336792
1.388750 1.481755 3.336792
4.895269 5.453418 9.576493
3.255053 4.771419 5.926401
2.055707 2.270962 3.649994
1.182449 0.194822 1.924447
1.102525 0.852774 1.673235
0.647491 0.525559 0.906286
0.991998 0.637662 1.512304
-7.897315 -7.148803 -11.991577
-5.624993 -3.868328 -8.514507
0.963706 0.776361 1.456389
0.967372 0.772453 1.454477
1.092095 1.108509 1.635845
1.477795 1.445478 2.206756
5.685983 4.349644 8.440506
5.685983 4.349644 8.440506
1.353119 0.629363 2.009282
1.471977 1.475356 2.186497
1.489839 1.445973 2.208285
1.732118 1.623003 2.566903
1.484668 1.460237 2.199167
1.484668 1.460237 2.199167
1.361058 0.636315 2.006287
1.498958 1.454554 2.207304
1.363347 0.646693 2.001817
1.005768 1.174855 1.433285
1.559584 1.510525 2.213925
1.559584 1.510525 2.213925
1.048681 0.962965 1.485423
1.316797 0.619344 1.866622
1.230991 1.115854 1.741039
1.009331 1.189959 1.424500
1.062592 0.559169 1.497628
1.086814 0.470053 1.528241
1.067597 0.555326 1.499480
1.149072 0.929172 1.610115
0.668625 0.526185 0.926496
1.063187 0.573394 1.490697
1.070037 0.544147 1.499557
1.063705 0.581724 1.485250
1.140564 0.801692 1.586444
1.029287 0.713017 1.434274
1.095256 0.475130 1.523799
1.268419 0.774440 1.757289
1.268419 0.774440 1.757289
1.059934 0.619329 1.467807
1.095241 0.503416 1.514760
1.365540 1.384685 1.859716
1.106005 0.464732 1.525320
1.171361 0.959882 1.610791
1.113742 0.453037 1.527642
1.443039 0.598914 1.976848
1.089110 0.549951 1.489465
1.443025 0.625944 1.961624
1.435795 1.532571 1.948869
1.097568 0.547241 1.488107
1.096029 0.551106 1.485750
1.009315 1.145170 1.367936
1.004412 0.886383 1.355651
1.041357 0.758659 1.404199
1.041357 0.758659 1.404199
1.033259 0.792959 1.392862
1.103846 0.544151 1.487796
1.374109 0.905587 1.795001
1.177516 0.606931 1.579198
1.123442 0.493952 1.506772
1.107516 0.551739 1.481932
1.242801 1.117199 1.660287
1.242801 1.117199 1.660287
1.240917 1.126583 1.654163
1.220481 0.521844 1.625105
1.118302 0.544789 1.481469
1.168133 0.653596 1.540565
1.102319 0.615084 1.452627
1.145533 1.017620 1.506691
0.977726 1.034855 1.287584
1.122736 0.550878 1.477784
1.095122 0.645914 1.440562
1.095122 0.645914 1.440562
1.034666 0.866422 1.357025
1.094067 0.657005 1.434450
1.115567 0.589317 1.460694
1.115567 0.589317 1.460694
1.130725 0.540879 1.480130
1.067045 0.758858 1.394618
1.159588 0.442011 1.514917
1.156422 0.488445 1.502487
1.004504 0.977940 1.303843
1.004504 0.977940 1.303843
1.327032 1.070405 1.721548
1.057789 0.814764 1.367539
1.366852 1.144924 1.766218
1.105600 0.679537 1.427254
1.082597 0.738578 1.397467
1.082597 0.738578 1.397467
1.015706 0.965073 1.305443
1.532848 1.124172 1.964756
1.014088 0.970900 1.302565
1.171077 0.470216 1.504162
1.060141 0.832902 1.361420
1.189329 1.028589 1.525857
1.015037 0.973887 1.300840
1.176651 0.463464 1.507424
1.181275 0.448658 1.513190
1.042589 0.889702 1.334430
0.976441 1.104012 1.248897
1.153788 0.540654 1.474494
1.175749 0.477680 1.500519
1.211159 0.872486 1.544675
1.058693 0.857723 1.347418
1.148317 0.577794 1.459883
1.148317 0.577794 1.459883
1.302749 0.857004 1.634732
1.043242 0.897468 1.325683
1.036934 0.917729 1.317657
1.003735 1.032305 1.274013
1.155420 0.558998 1.466509
1.164214 0.533785 1.476891
1.024949 0.966874 1.300053
1.024949 0.966874 1.300053
0.981735 1.116754 1.239781
1.146033 0.604861 1.445777
0.989999 1.090546 1.248028
1.327808 0.878423 1.654532
1.007023 1.036606 1.268885
1.170698 0.538905 1.472923
1.153279 0.703858 1.422381
1.060483 0.885365 1.330665
1.198114 0.466719 1.502215
1.345303 0.899304 1.669428
1.017534 1.017437 1.275330
1.066631 0.872909 1.334796
0.995951 1.094974 1.245227
0.995951 1.094974 1.245227
1.211220 0.446992 1.510926
1.013634 1.044717 1.263097
1.186111 0.538379 1.472638
1.186111 0.538379 1.472638
1.188894 0.531102 1.475367
1.193723 0.517955 1.480903
1.084657 0.850775 1.343888
1.027749 1.021618 1.270709
1.027721 1.021540 1.270405
1.007061 1.082267 1.244761
1.221585 0.895158 1.498058
1.100945 0.813948 1.355830
1.150820 0.673127 1.417116
1.184735 0.575106 1.456249
1.184735 0.575106 1.456249
1.184735 0.575106 1.456249
1.007880 1.098640 1.238204
1.220824 0.472540 1.499329
1.013827 1.083330 1.243573
1.076346 0.897315 1.319575
1.129289 0.743146 1.384005
1.011819 1.089760 1.239812
1.100516 0.832318 1.347964
1.051943 0.971976 1.288153
1.179812 0.601285 1.444696
1.070941 0.916479 1.311137
1.070941 0.916479 1.311137
1.077010 0.900125 1.318120
1.057877 0.957268 1.293918
1.057877 0.957268 1.293918
1.055424 0.967036 1.289752
1.107574 0.812965 1.352928
1.055748 0.721726 1.260095
1.063807 0.946628 1.296694
1.231687 0.473738 1.500837
1.234516 0.461525 1.503847
1.013732 1.099784 1.233707
1.082306 0.906804 1.313912
1.111803 0.824527 1.349136
1.018147 1.094609 1.234636
1.196759 0.587241 1.449905
1.178081 0.934638 1.407517
1.242839 0.472710 1.499827
1.115326 0.830340 1.345711
1.121605 0.821151 1.352361
1.247777 0.464451 1.504090
1.030276 1.076759 1.239668
1.121560 0.820857 1.348968
1.174441 0.944199 1.412241
1.056670 1.003953 1.269565
1.226302 0.531940 1.473289
1.139419 0.788968 1.368047
1.255277 0.458940 1.506487
1.056888 1.006865 1.268333
1.254078 0.464630 1.503892
1.120246 0.832167 1.342679
1.252384 0.481234 1.499240
1.217693 0.574955 1.456154
1.135954 0.798988 1.357973
1.407575 0.841471 1.654630
1.235482 0.531954 1.475237
1.233161 0.539605 1.471281
1.233161 0.539605 1.471281
1.239045 0.529370 1.476009
1.088553 0.938221 1.296724
1.243164 0.523934 1.478471
1.218814 0.592439 1.449145
1.272729 0.434974 1.512643
1.086274 0.953121 1.289387
1.142078 0.804325 1.355249
1.203702 1.150157 1.425553
1.096741 0.933086 1.298318
1.097651 0.400787 1.299248
1.251725 0.522580 1.479903
1.047450 1.073542 1.236839
1.087632 0.853760 1.267980
1.144572 0.813527 1.350193
1.092316 0.955773 1.287617
1.036262 0.616436 1.174851
1.036262 0.616436 1.174851
1.177426 0.745814 1.380816
1.177426 0.745814 1.380816
1.175177 0.756083 1.375488
1.175177 0.756083 1.375488
1.294193 0.446424 1.514632
1.105893 0.939237 1.293896
1.058260 1.076856 1.232936
1.188741 0.738495 1.384134
1.300054 0.453744 1.513463
1.300054 0.453744 1.513463
1.245366 0.599825 1.448715
1.296609 0.467737 1.507725
1.296609 0.467737 1.507725
1.302205 0.461771 1.511063
1.183773 0.763003 1.373112
1.159334 0.825138 1.344537
1.316297 0.437376 1.521659
1.064955 1.082939 1.229074
1.311264 0.471644 1.508751
1.407076 0.859317 1.597462
1.159466 0.858317 1.329562
1.172548 0.825648 1.344306
1.146829 0.891335 1.314025
1.321120 0.462118 1.513009
1.182229 0.811481 1.350883
1.182229 0.811481 1.350883
1.328859 0.455719 1.518005
1.164411 0.860931 1.328693
1.164411 0.860931 1.328693
1.325877 0.469662 1.511488
1.190813 0.805457 1.354368
1.190813 0.805457 1.354368
1.329952 0.478210 1.511260
1.329952 0.478210 1.511260
1.183742 0.395708 1.344763
1.158062 0.890875 1.314512
1.186218 0.825357 1.345154
1.186218 0.825357 1.345154
1.183397 0.855002 1.331739
1.183397 0.855002 1.331739
1.180203 0.869117 1.325348
1.293255 0.627142 1.451359
1.293255 0.627142 1.451359
1.034853 0.746061 1.155403
1.151098 0.950054 1.287572
1.174658 0.893810 1.313075
1.154643 0.945353 1.289661
1.103700 0.722381 1.228303
1.155821 0.949745 1.286486
1.155821 0.949745 1.286486
1.260512 0.919247 1.402816
1.164058 0.937759 1.293433
1.166365 0.934099 1.295576
1.166365 0.934099 1.295576
1.693236 0.242768 1.877503
1.232559 0.847652 1.356318
1.418289 0.832849 1.545259
1.418289 0.832849 1.545259
1.212308 0.858553 1.332632
1.141109 1.020698 1.254314
1.277587 0.705728 1.403743
1.207918 0.875446 1.325523
1.155303 0.996862 1.266489
1.155319 0.996465 1.266396
1.237387 0.912170 1.356155
1.092917 0.605018 1.188797
1.209414 0.889969 1.319189
1.209414 0.889969 1.319189
1.163297 0.996350 1.267267
1.163297 0.996350 1.267267
1.273258 0.697645 1.385613
1.252868 0.804555 1.363306
1.216684 0.891219 1.320666
1.150212 1.041883 1.246059
1.221067 0.891846 1.320943
1.264953 0.803296 1.366536
1.147793 1.057127 1.238404
1.274362 0.804758 1.368429
1.105972 0.959017 1.179126
1.277709 0.831219 1.358499
1.257071 0.873706 1.335777
1.328895 0.720936 1.406284
1.328895 0.720936 1.406284
1.270458 0.875106 1.338261
1.277863 0.865280 1.345376
1.281565 0.861100 1.348363
1.287508 0.854837 1.352300
1.285843 0.862119 1.349064
1.619380 1.149957 1.686888
1.305028 0.873285 1.352018
1.316739 0.868057 1.356338
1.326591 0.870708 1.361020
1.620699 0.650599 1.661753
1.264634 0.985943 1.293001
1.324774 0.886344 1.353960
1.099285 0.909778 1.122174
1.216706 1.083354 1.240931
1.262769 1.032753 1.274954
1.262769 1.032753 1.274954
1.269958 1.094830 1.255482
1.353499 0.990500 1.334131
2.050284 1.161247 1.970182
0.764360 0.394503 0.708950
1.607590 1.109444 1.423782
1.716123 0.965165 1.459745
1.724248 0.700243 1.453900
1.756930 0.642894 1.475786
1.750496 0.663880 1.464832
1.716283 0.741972 1.430783
1.774310 0.732790 1.477192
1.729632 0.717509 1.439063
1.763568 0.649722 1.467038
1.763568 0.649722 1.467038
1.711237 0.762220 1.422242
1.144080 0.354482 0.943640
1.777751 0.635574 1.469034
1.777751 0.635574 1.469034
1.768013 0.656919 1.459181
1.768013 0.656919 1.459181
1.904526 0.765692 1.567673
1.724873 0.751247 1.418733
1.724873 0.751247 1.418733
1.762653 0.676001 1.448922
1.735189 0.702971 1.426337
1.686417 0.833483 1.385238
1.707869 0.694095 1.400778
1.745138 0.717637 1.430306
1.684886 0.841027 1.380369
1.698588 0.688261 1.390675
1.688682 0.835399 1.381367
1.688682 0.835399 1.381367
1.688682 0.835399 1.381367
1.695719 0.823260 1.386255
1.760231 0.691072 1.438770
1.676812 0.863153 1.369806
1.674685 0.869810 1.366775
1.743168 0.734429 1.421587
1.677071 0.865821 1.366335
1.752545 0.716872 1.427071
1.665983 0.892911 1.356274
2.115495 1.038489 1.720295
1.670367 0.886715 1.358018
1.666143 0.894015 1.354515
1.766680 0.683938 1.436047
1.698986 0.826018 1.380842
1.779968 0.667909 1.446557
1.673900 0.876736 1.360238
0.768978 0.401239 0.624773
1.658143 0.914753 1.346607
2.039702 0.795625 1.655487
1.661441 0.907559 1.348285
1.674839 0.881569 1.358020
1.673632 0.885565 1.356620
1.685360 0.859041 1.365710
1.760210 0.715481 1.424607
1.760210 0.715481 1.424607
1.697205 0.845316 1.372991
1.797874 0.647963 1.454371
1.797874 0.647963 1.454371
1.676109 0.883979 1.355812
1.673881 0.888207 1.353940
1.673881 0.888207 1.353940
1.670862 0.897118 1.351294
1.936599 0.933123 1.566111
1.756882 0.723800 1.420538
1.666663 0.907125 1.345275
1.683291 0.873408 1.358575
1.693150 0.855082 1.366114
2.027609 0.747031 1.635713
2.027609 0.747031 1.635713
1.674964 0.891888 1.351152
1.681284 0.877771 1.355856
1.692733 0.857479 1.365052
1.692733 0.857479 1.365052
1.690108 0.863214 1.362612
1.690108 0.863214 1.362612
1.751500 0.743159 1.411265
1.681341 0.880332 1.354694
1.715282 0.814479 1.381004
1.803312 0.643822 1.451518
1.638365 0.974936 1.317056
1.761597 0.727400 1.415598
1.713514 0.822112 1.376824
1.673202 0.902729 1.344114
1.634897 0.984128 1.312956
1.692619 0.864404 1.359222
1.707946 0.834474 1.371059
1.707946 0.834474 1.371059
1.678447 0.893235 1.346556
1.678447 0.893235 1.346556
1.768495 0.721345 1.418238
1.695948 0.861290 1.359549
1.816528 0.636582 1.455895
1.714650 0.825223 1.374214
2.033964 0.747769 1.629861
1.699713 0.856809 1.361413
1.721751 0.813651 1.378833
1.721751 0.813651 1.378833
1.627904 1.003314 1.303653
1.627904 1.003314 1.303653
1.808667 0.653940 1.448232
1.808667 0.653940 1.448232
1.640277 0.980120 1.312917
1.642976 0.972769 1.314851
1.703062 0.852361 1.362599
1.720051 0.818087 1.375855
1.676910 0.905081 1.341173
1.635929 0.990153 1.308151
1.717071 0.826477 1.372638
1.700221 0.859370 1.359170
1.705036 0.851032 1.362254
1.699239 0.867038 1.356430
1.678236 0.905565 1.339584
1.675855 0.910479 1.337543
1.637996 0.986623 1.307156
1.637996 0.986623 1.307156
1.803554 0.669965 1.438932
1.694012 0.875633 1.351514
1.725600 0.812615 1.376295
1.681256 0.901212 1.340121
1.626351 1.015039 1.296274
0.847743 0.413740 0.675002
1.724068 0.820201 1.373738
1.643959 0.978774 1.309904
1.722713 0.824228 1.371872
1.722713 0.824228 1.371872
1.722578 0.824440 1.371701
1.722578 0.824440 1.371701
1.635043 1.001030 1.301011
1.650580 0.968487 1.312844
1.650580 0.968487 1.312844
0.850871 0.409884 0.676114
1.707042 0.856750 1.357367
1.682815 0.905765 1.337160
1.698144 0.873413 1.349085
1.639970 0.994625 1.302329
1.646948 0.980330 1.307769
1.727091 0.823427 1.371035
1.643005 0.986927 1.304261
1.813431 0.664776 1.439473
1.708769 0.857360 1.355854
1.707350 0.860515 1.354595
1.707350 0.860515 1.354595
1.706589 0.865948 1.353613
1.704953 0.870396 1.350522
1.704953 0.870396 1.350522
1.737841 0.807713 1.376084
1.737841 0.807713 1.376084
1.650740 0.981150 1.305562
1.701866 0.877828 1.345754
1.653012 0.975732 1.306756
1.818825 0.668471 1.436900
1.647869 0.989375 1.301266
1.647869 0.989375 1.301266
1.708991 0.865822 1.349166
1.707446 0.871163 1.347072
1.693673 0.901083 1.335562
1.640849 1.006379 1.293597
1.808154 0.697919 1.424798
1.707475 0.878116 1.345169
1.657618 0.975579 1.305893
1.657411 0.975237 1.305529
1.661922 0.965879 1.309066
1.695626 0.902391 1.334482
1.816172 0.685038 1.428415
1.830782 0.659897 1.439484
1.823571 0.672775 1.433598
1.809770 0.700573 1.422599
1.701184 0.895268 1.336250
1.659523 0.975566 1.303124
1.711980 0.875334 1.344211
1.662072 0.971372 1.304555
1.662072 0.971372 1.304555
1.716291 0.869084 1.345554
1.703224 0.894409 1.335298
1.814798 0.695984 1.422673
1.810796 0.704444 1.419215
1.669160 0.961704 1.307900
1.669160 0.961704 1.307900
1.706141 0.891945 1.336364
1.716784 0.873517 1.344518
1.831563 0.667574 1.434294
1.703133 0.901375 1.333606
1.805353 0.716535 1.412763
1.668640 0.966106 1.305775
1.668640 0.966106 1.305775
1.666032 0.970586 1.303512
1.651636 1.001338 1.291342
1.651636 1.001338 1.291342
1.670721 0.965605 1.305504
1.672206 0.962501 1.306489
1.733840 0.848706 1.354326
1.669629 0.967827 1.304155
1.732692 0.850977 1.352792
1.720423 0.873998 1.343179
1.707211 0.897578 1.332676
1.709986 0.895913 1.333736
1.660631 0.991325 1.293857
1.712963 0.893064 1.334449
1.676439 0.961261 1.305809
1.658583 0.997106 1.291641
1.723663 0.873355 1.342170
1.758975 0.812337 1.368268
1.822359 0.704955 1.417509
1.822359 0.704955 1.417509
1.811575 0.725933 1.408771
1.672897 0.972894 1.300510
1.677640 0.965433 1.303854
1.660054 0.999767 1.288632
1.763242 0.812078 1.368679
1.816933 0.722174 1.409505
1.821186 0.717709 1.410806
1.871556 0.642607 1.446997
1.834624 0.705860 1.416390
1.865113 0.662940 1.438236
1.854484 0.676742 1.429283
1.776141 0.808950 1.368352
1.669790 1.000558 1.285543
1.667741 1.005740 1.282967
1.784200 0.802430 1.371125
1.843727 0.703778 1.416824
1.843185 0.704076 1.416116
1.843185 0.704076 1.416116
1.840410 0.714220 1.412613
1.840410 0.714220 1.412613
1.784917 0.805412 1.369668
1.878473 0.656466 1.441258
2.278729 0.517712 1.748252
1.786702 0.809880 1.367044
1.786702 0.809880 1.367044
1.893142 0.649159 1.447892
1.784314 0.816085 1.364413
1.849483 0.711259 1.413835
1.641227 0.823771 1.243588
1.768465 0.842921 1.351293
1.782517 0.820478 1.361845
1.892708 0.655321 1.443212
1.762549 0.861823 1.342047
1.893966 0.676086 1.437386
1.862860 0.712820 1.413351
1.754795 0.885215 1.331325
1.803455 0.807789 1.367639
1.803455 0.807789 1.367639
1.771640 0.859402 1.343060
1.861810 0.719727 1.411277
1.756997 0.886648 1.330140
1.888409 0.673023 1.429609
1.755080 0.891848 1.327942
1.755080 0.891848 1.327942
1.906427 0.666016 1.441916
1.761222 0.883964 1.331644
1.761222 0.883964 1.331644
1.908912 0.661150 1.442559
1.759722 0.889299 1.329128
1.882152 0.699249 1.421498
1.927562 0.640192 1.453017
1.762180 0.889628 1.328200
1.817773 0.805255 1.368563
1.817773 0.805255 1.368563
1.913185 0.668326 1.440184
1.767267 0.886879 1.329872
1.892250 0.696551 1.423627
1.724605 0.957102 1.296467
1.724605 0.957102 1.296467
1.822961 0.803574 1.369631
1.731055 0.951381 1.300410
1.727376 0.959808 1.296124
1.734406 0.949516 1.300649
1.913430 0.689372 1.433640
1.300791 0.633082 0.948565
1.778023 0.887580 1.329472
1.718001 0.984699 1.284371
1.736483 0.955067 1.297688
1.738538 0.951990 1.298955
1.917002 0.690670 1.431816
1.734402 0.962290 1.294582
1.736675 0.957879 1.295933
1.721144 0.888377 1.278930
1.739138 0.956326 1.297266
1.740131 0.954308 1.298001
1.737791 0.963003 1.293597
1.844342 0.805356 1.372344
1.929194 0.705137 1.431712
1.851408 0.805414 1.373143
1.935802 0.701923 1.432916
1.859313 0.800778 1.375522
1.941016 0.967971 1.416566
1.866936 0.800500 1.377590
1.866936 0.800500 1.377590
1.919838 0.737035 1.415842
1.562662 0.687922 1.150531
1.810828 0.889342 1.332088
1.864127 0.813816 1.370401
1.116100 0.341612 0.813381
1.594830 0.903812 1.161891
2.251148 0.660334 1.630577
1.810597 0.992094 1.290025
1.820142 0.990659 1.293205
1.832397 0.989403 1.297042
1.848387 0.992592 1.300829
1.272223 0.770113 0.827574
